<svg id="Capa_1" data-name="Capa 1" xmlns="http://www.w3.org/2000/svg" viewBox="0 0 566.93 708.66"><defs><style>.cls-1{fill:#ffc4e9;}.cls-2,.cls-5{fill:#fff;}.cls-3{fill:#ffdcb2;}.cls-4{fill:#56242e;stroke:#56242e;}.cls-11,.cls-12,.cls-4,.cls-5,.cls-6,.cls-7,.cls-8{stroke-miterlimit:10;}.cls-4,.cls-8{stroke-width:3.27px;}.cls-11,.cls-5,.cls-6,.cls-7,.cls-8{stroke:#54252e;}.cls-5{stroke-linecap:round;}.cls-5,.cls-7{stroke-width:2.18px;}.cls-10,.cls-11,.cls-6,.cls-7{fill:#54252e;}.cls-6{stroke-width:0.55px;}.cls-8{fill:none;}.cls-12,.cls-9{fill:#fe76a6;}.cls-11{stroke-width:4.36px;}.cls-12{stroke:#fff;stroke-width:0.55px;}</style></defs><title>Mesa de trabajo 34 copia</title><rect class="cls-1" x="-0.99" width="568.91" height="708.66"/><path class="cls-2" d="M283.87,506.18c-88.4-.35-151.49-37.81-171.35-51.3a19.32,19.32,0,0,1-4.45-2.28c-1.15-.78-1.86-1.28-2.28-1.59a22,22,0,0,1-1.78-1.46c-.76.18-1.49.33-2.21.47a60.36,60.36,0,0,1-11.94,1.3c-.83,0-1.26,0-1.26,0a20.07,20.07,0,0,1-19-19.33c-1-38.74,16.57-77.45,23.12-90.5,2.8-87.8,40.2-147.25,71.38-181.85,34.52-38.3,68.92-55.2,70.37-55.9a19.89,19.89,0,0,1,8.64-2h0a19.85,19.85,0,0,1,19.4,15.76,21.6,21.6,0,0,1,1.27,7.3v98.74l.4,0c6.4-.58,13.87-1.19,21.48-1.19,2.33,0,4.63.06,6.82.17,3.42.18,7,.43,10.68.76V121.58A19.83,19.83,0,0,1,323,101.74c.53,0,1.06,0,1.6.07a19.73,19.73,0,0,1,7.1,1.93l.42.21a21.4,21.4,0,0,1,4.11,1.72,244,244,0,0,1,41.06,28.94c26.31,22.17,46.85,47.15,61,74.26,22.3,39.59,34.37,84.13,35.91,132.48,6.3,12.53,22.73,48.73,23.15,85.82a23.52,23.52,0,0,1-1.15,7.51,20.12,20.12,0,0,1-18.76,16.62s-.45,0-1.28,0a58.82,58.82,0,0,1-13.73-1.7c-.28.25-.57.49-.86.72-2.9,2.26-72.23,55.42-177.62,55.84h-.13Z"/><path class="cls-2" d="M68.62,575.44a21.81,21.81,0,0,1-5.56-.72c-9.46-2.46-25.08-10-29.71-12.57A19,19,0,0,1,31.48,561a21.45,21.45,0,0,1-9.09-17.33,20.79,20.79,0,0,1,8.73-16.86l.15-.11a57.35,57.35,0,0,0,7-7.42c2.7-4.41,12.52-25.66,17.27-35.95,2.94-6.37,5.48-11.88,7.07-15.15l.08-.15a12.12,12.12,0,0,0,1.45-5.39c0-.16,0-.32,0-.48a21.22,21.22,0,0,1,6-15.2,21.63,21.63,0,0,1,15.36-6.43,21.89,21.89,0,0,1,9.17,2l3.11,1.38c12.16,5.37,24.68,11.07,32.46,16.63,14.7,10.32,25.47,31.51,11.74,60.16-8.09,16.82-22.24,26.08-39.85,26.08h0a59.34,59.34,0,0,1-11-1.09,34.93,34.93,0,0,0-1.4,7.73A20.92,20.92,0,0,1,84,568.83,21.22,21.22,0,0,1,68.62,575.44Z"/><path class="cls-2" d="M151.25,605.25a20.59,20.59,0,0,1-3.5-.3c-7.65-1.08-16.56-3.45-23.42-8.51a36,36,0,0,1-6.6-.67l-.2,0c-16.44-3.4-23.14-13.49-25.66-19.2a30.54,30.54,0,0,1-1.78-19.71h0a36.14,36.14,0,0,1,11-18.08,22.33,22.33,0,0,1-.13-15.46c.22-.61.46-1.2.73-1.79,5.8-12.39,18.74-25.63,37.64-25.63a41.3,41.3,0,0,1,10,1.27l.39.11c8.25,2.13,22.84,7.72,30.13,21.45,3.2,6,6.07,15.85,1.72,28.37-.12.41-.23.76-.33,1.08-7.77,25.14-9.06,33.19-9.27,35.08A20.5,20.5,0,0,1,167,598a20.75,20.75,0,0,1-15.76,7.21ZM144.81,515Z"/><path class="cls-2" d="M175.58,636.16c-12.05,0-27.31-4.85-28-5.06-.45-.15-.89-.31-1.33-.48a21.56,21.56,0,0,1-12.6-13.3,20.57,20.57,0,0,1,2.05-17.2c.06-.1,5.68-9.93,12.57-40.54,0-.14.06-.29.1-.43,1-4.09,7.07-29.87,8-35.82.08-.48.17-1,.28-1.42,1.78-7.39,8.62-16,22.1-16A60.55,60.55,0,0,1,189.15,507l.47.1A36.83,36.83,0,0,1,200.18,511a28.79,28.79,0,0,1,3-.15h.8a35.76,35.76,0,0,1,28,14.3c5.82,7.87,11.36,22.31,4.72,46.34-7.6,27.27-24,39.06-38.57,41.48-.12,1.83-.15,2.72-.15,2.83a20,20,0,0,1-.36,3.27,21.1,21.1,0,0,1-19.52,17C177.28,636.14,176.44,636.16,175.58,636.16Z"/><path class="cls-2" d="M245.53,620.17c-.63,0-1.23,0-1.83-.06-25-1-41.52-20-41.06-47.28,0-1.05.06-2.07.14-3.05,0-.37.06-.74.1-1.11h0c3.89-41.38,30.69-52.42,45.91-52.42h.72c4.49.09,18.34,1.4,28.67,13.31,5.73,6.6,12,18.62,9.47,38.47a21,21,0,0,1-2.06,7.06,22,22,0,0,1,.63,5.93c0,.6-.07,1.21-.15,1.81C282.87,608.63,263.4,620.17,245.53,620.17Zm-13.17-36.45Z"/><path class="cls-2" d="M287.83,621.82a42,42,0,0,1-19.45-4.58,21.25,21.25,0,0,1-11.32-18.42c-.08-4.78-.32-16.77-.5-25.41l-.14-6.95c0-.93,0-1.93,0-3h0a159.89,159.89,0,0,0-1.59-20.4A21.23,21.23,0,0,1,258.35,527a21.55,21.55,0,0,1,12.94-8.49A51.86,51.86,0,0,1,283.78,517h.27a50.3,50.3,0,0,1,12.53,1.58,28,28,0,0,1,5.21-.91l1,0,1.17,0a30.89,30.89,0,0,1,30.86,25.23,19.94,19.94,0,0,1,.37,2.67l0,.3c0,.44,0,.88,0,1.32,0,12.51-8.69,22.75-22.25,26.37-.17,13.06,0,21.61,0,25.25a20.75,20.75,0,0,1-2.66,11.73,21.68,21.68,0,0,1-14.18,10.46A38.85,38.85,0,0,1,287.83,621.82Z"/><path class="cls-2" d="M332.31,619.77A21,21,0,0,1,313.93,609a20.74,20.74,0,0,1-.61-18.8c-.47-7.44-3.39-28.29-4.17-32.89-.11-.58-.19-1.17-.25-1.76a22.28,22.28,0,0,1-.09-2.6c-.07-1.62-.59-7.75-3.65-30.72l-.05-.41a20.19,20.19,0,0,1,9.67-35.36l1.94-.36a168.69,168.69,0,0,1,29.75-3.5h.29a21.17,21.17,0,0,1,19.8,13.57,20.54,20.54,0,0,1-3.13,20.06c.24,12,4.32,50.06,6.1,65,.23.28.55.64.8.93l.72.82a20.6,20.6,0,0,1-12.38,33.69,240.77,240.77,0,0,1-24.65,3c-.57,0-1.14.07-1.71.07Z"/><path class="cls-2" d="M375.4,613.05a36.13,36.13,0,0,1-11.37-1.7,21.25,21.25,0,0,1-14.39-16.18c-.9-4.62-3.16-16-4.84-24.48l-1.41-7.12a28.31,28.31,0,0,1-.64-10.18,19.45,19.45,0,0,0-.06,6.55c-.39-2.43-2.38-12.72-4.8-18.68a1.11,1.11,0,0,1-.07-.16,21.23,21.23,0,0,1,11.47-27.36A51.84,51.84,0,0,1,361.54,510l.28,0a59,59,0,0,1,9.1-.76,36.91,36.91,0,0,1,3.89.2,28.49,28.49,0,0,1,5.46-2.2l.21-.06a29.51,29.51,0,0,1,7.9-1.08c11.62,0,32.27,6.62,40.39,50.83a129.92,129.92,0,0,0,4.13,14.81,21,21,0,0,1,3,14,20.73,20.73,0,0,1-7.78,13.36,44.1,44.1,0,0,1-26.57,9.3h-.29a24,24,0,0,1-5.19-.56A22.15,22.15,0,0,1,392,610l-.43.17A46.31,46.31,0,0,1,375.4,613.05Z"/><path class="cls-2" d="M432.05,599.19A31,31,0,0,1,403,579.55h0a36.25,36.25,0,0,1-1.38-21.1,22.31,22.31,0,0,1-8.94-12.61c-.17-.62-.31-1.26-.42-1.89-3-17.64,3.55-39.09,25.11-47.23l.36-.13a57.14,57.14,0,0,1,19.49-3.7c17.52,0,30.7,9.88,35.31,26.45.11.3.21.61.31.92,8,25,11.54,32.34,12.45,34a20.47,20.47,0,0,1,4.05,17.54A20.8,20.8,0,0,1,477.82,586c-4.23,2.12-13.94,6.41-23.32,6.41h-.77a35.92,35.92,0,0,1-5.83,3.26l-.19.08A39.62,39.62,0,0,1,432.05,599.19Z"/><path class="cls-2" d="M479.69,581.45a21.19,21.19,0,0,1-19.36-12.73c-1.71-4-6-13.82-9.4-21.57l-4.25-9.72-.3-.74h0l-3-6.83c-6.76-15.36-13.16-29.89-15.45-33.39a20.39,20.39,0,0,1-4.53-15.68,21.21,21.21,0,0,1,9.12-14.71c.39-.27.8-.53,1.21-.77,8.41-4.9,17.84-7.72,25.87-7.72a30.89,30.89,0,0,1,9.9,1.55,20.71,20.71,0,0,1,12.58,11.6,18.52,18.52,0,0,1,.8,2.15c.75-.06,1.51-.09,2.27-.09,12.23,0,29.79,7.24,44.15,41.63A127.18,127.18,0,0,0,536.44,528a21,21,0,0,1,5.94,13.16,20.65,20.65,0,0,1-4.85,14.82,44.27,44.27,0,0,1-24.08,14.76l-.17,0a25,25,0,0,1-5.28.63,21.09,21.09,0,0,1-2.37,2.15l-.71.53c-8.94,6.35-20.27,7.29-24.72,7.4ZM469,513.57Z"/><path class="cls-2" d="M142.7,526.13A21.77,21.77,0,0,1,121,505.54a20.29,20.29,0,0,1,1-7.67l1.81-5.39A22,22,0,0,1,120,481a20.07,20.07,0,0,1,1.06-7.21l.18-.49A21.26,21.26,0,0,1,141.61,459a24.82,24.82,0,0,1,6.89,1c4.48,1,9.22,2.33,14.46,3.92A21.59,21.59,0,0,1,178.19,483c0,.57.06,1.15.06,1.72V485a19.68,19.68,0,0,1-.83,5.66,21.06,21.06,0,0,1-11.88,13.44l-2.36,7.22a19.8,19.8,0,0,1-1.5,3.44,21.54,21.54,0,0,1-19,11.37Z"/><path class="cls-2" d="M163.56,532.16a24.75,24.75,0,0,1-3.08-.2,19.94,19.94,0,0,1-5.65-1.6c-10.09-4.57-15.11-15-12.21-25.44,1.56-5.58,2.73-9.66,3.59-12.5.48-1.62.85-2.8,1.17-3.73a21.42,21.42,0,0,1,6.59-9.9h0a21.65,21.65,0,0,1,19.5-4.22,21.49,21.49,0,0,1,15.91,19.52,20.06,20.06,0,0,1-.67,6.72q-2.19,7.86-4.37,15.72a21.21,21.21,0,0,1-20.77,15.64Z"/><path class="cls-2" d="M169.54,511.87a20.17,20.17,0,0,1-2.8-.2l-.51-.08a18.82,18.82,0,0,1-2.21-.45l-.57-.15a22.19,22.19,0,0,1-16.3-19.69,19.67,19.67,0,0,1,.12-4.6l.06-.43a19.58,19.58,0,0,1,.46-2.28s.11-.41.13-.47c2.6-9.36,10.8-15.65,20.89-16h.74a20.57,20.57,0,0,1,3.41.29l.45.08c.63.11,1.24.24,1.85.41a22.36,22.36,0,0,1,16.56,19.92,19.33,19.33,0,0,1-.13,4.56l-.07.5a19.68,19.68,0,0,1-.44,2.16,22.05,22.05,0,0,1-20.31,16.42C170.43,511.85,170,511.87,169.54,511.87Z"/><path class="cls-2" d="M187.84,537.62a40.73,40.73,0,0,1-8.9-1,28.06,28.06,0,0,1-19.27-15c-.25-.51-.49-1-.7-1.55a30.1,30.1,0,0,1-1-18.64c.1-.42.22-.84.35-1.26C162.45,487.1,173.23,479,186.48,479a36,36,0,0,1,5.59.45c.38.06.75.13,1.13.21,11.4,2.49,19.55,11,21.27,22.13,0,0,0,.07,0,.11a27.77,27.77,0,0,1-.26,9.66l-.26,1.31a21.36,21.36,0,0,1-1.77,5.25c-.08.62-.17,1.23-.3,1.85a19.77,19.77,0,0,1-1.67,4.89c-3.57,7.21-10.56,11.81-19.18,12.63C190,537.57,188.92,537.62,187.84,537.62Z"/><path class="cls-2" d="M218.46,543.62a22.72,22.72,0,0,1-2.85-.18l-.5-.07a18.86,18.86,0,0,1-2.32-.51,23.15,23.15,0,0,1-4.94-2,21.54,21.54,0,0,1-3.79.33,23.37,23.37,0,0,1-3-.2l-.87-.13a21.47,21.47,0,0,1-17.62-18,20.61,20.61,0,0,1-.25-2.6c-.06-2.38-.06-2.47,2.9-19.67.09-.55.21-1.1.35-1.65,2.59-9.87,11-16.5,20.87-16.5a22.2,22.2,0,0,1,3.81.33,23.71,23.71,0,0,1,3.81,1,29.32,29.32,0,0,1,3.44.36l.16,0c15.28,2.39,24.76,15,23.49,31.41,0,.4-.07.79-.12,1.19-1.28,9.2-1.8,13-4.63,17.32a19.2,19.2,0,0,1-2.68,3.28,21.66,21.66,0,0,1-15.26,6.28Z"/><path class="cls-2" d="M246.14,546.56c-.53,0-1.06,0-1.58-.06a21.8,21.8,0,0,1-5.29-1.09c-.54,0-1.08,0-1.62,0-1,0-1.94-.05-2.9-.14l-.56-.06A26.11,26.11,0,0,1,211,525.5c-.08-.3-.15-.6-.21-.91a28.71,28.71,0,0,1-.42-9.33,33.36,33.36,0,0,1,12.22-22.62,18.79,18.79,0,0,1,1.93-1.38,28.86,28.86,0,0,1,6.25-2.92,17.61,17.61,0,0,1,2.48-2.42,21.44,21.44,0,0,1,14-5.18c.58,0,1.16,0,1.74.08h.15a19.45,19.45,0,0,1,4.08.76,21.44,21.44,0,0,1,15.55,18.86,19.72,19.72,0,0,1-.18,5.26c-.1.61-.4,2.61-.92,8a58,58,0,0,0-.25,6.48,20,20,0,0,1,.51,6.35v.16a21.47,21.47,0,0,1-17.26,19.38,19,19,0,0,1-3.08.4l-.41,0C246.79,546.56,246.47,546.56,246.14,546.56Z"/><path class="cls-2" d="M260.36,547.5a19.94,19.94,0,0,1-4.14-.44c-10.78-2.3-17.92-11.41-17.35-22.16.34-5.89.61-10.14.83-13.08.13-1.68.24-2.92.35-3.89a21.32,21.32,0,0,1,21.37-19.39l1.08,0a21.45,21.45,0,0,1,19.7,15.71,20,20,0,0,1,.77,6.66l-.9,16.29c-.56,10.73-8.93,19.21-20,20.19C261.53,547.47,261,547.5,260.36,547.5Z"/><path class="cls-2" d="M261.94,526.35c-.34,0-.67,0-1,0l-.34,0a22.18,22.18,0,0,1-20.23-15.8,19.86,19.86,0,0,1-.85-4.46l0-.43a21.14,21.14,0,0,1,0-2.64l0-.25c.52-9.59,7.15-17.49,16.89-20a20.24,20.24,0,0,1,4.09-.63l.53,0c.32,0,.65,0,1,0s.64,0,1,0a22.33,22.33,0,0,1,20.43,16,19.32,19.32,0,0,1,.82,4.39l0,.45a21,21,0,0,1,0,2.24A22.06,22.06,0,0,1,268,525.51a19.23,19.23,0,0,1-4.06.74l-.57,0C262.88,526.33,262.41,526.35,261.94,526.35Z"/><path class="cls-2" d="M278.91,547.88a21.72,21.72,0,0,1-20.13-13.8,20,20,0,0,1-1.2-4.56l0-.22a19.09,19.09,0,0,1-.21-3l0-2.54a22.44,22.44,0,0,1-3.55-6.88,19.67,19.67,0,0,1-.93-6c0-.2,0-.47,0-.68a21.51,21.51,0,0,1,5.61-14,21.22,21.22,0,0,1,18.89-14.34c.52,0,1-.06,1.55-.06h.18a21.19,21.19,0,0,1,20.24,14.31,21.23,21.23,0,0,1,5.49,14.18v.1a21.12,21.12,0,0,1-4.2,12.82v3.3a21.44,21.44,0,0,1-13.58,19.81,21,21,0,0,1-8.08,1.57Z"/><path class="cls-2" d="M299.08,547.42a26.14,26.14,0,0,1-24.6-16.37c-.12-.29-.23-.58-.34-.87a29,29,0,0,1-1.7-9.19,33.39,33.39,0,0,1,9-24.09,21.82,21.82,0,0,1,1.71-1.62,27.65,27.65,0,0,1,16.79-6.54c.44,0,.89,0,1.34,0a39.52,39.52,0,0,1,8.64,1c9.93,2.2,17,9.61,18.41,19.34,0,.29.08.59.11.88a70.32,70.32,0,0,0,1.09,7.83,19.69,19.69,0,0,1,1.46,6l0,.56A21.47,21.47,0,0,1,316.53,546a20.31,20.31,0,0,1-2.87.79l-.41.07a19.14,19.14,0,0,1-2.62.33c-.43,0-.86,0-1.28,0h0a20.82,20.82,0,0,1-4.05-.4,27.46,27.46,0,0,1-4.53.53l-.57,0Z"/><rect class="cls-2" x="336.94" y="431.47" width="101.5" height="101.5"/><path class="cls-2" d="M283.92,486.33c99.82-.39,165.49-51.64,165.49-51.64s-5.9-12.91-4.81-19.44c9.26,12.23,22.37,15.16,28.9,15.85a3.69,3.69,0,0,0,4.06-3.71c-.46-40.41-23-80.95-23-80.95-2.59-148.5-108.87-213-127.8-223.35a1.94,1.94,0,0,0-2.87,1.71V246.43s-22.12-3.21-40.5-2.36h1.08c-18.39-.85-40.51,2.36-40.51,2.36V124.8a1.94,1.94,0,0,0-2.87-1.71c-18.93,10.32-125.2,74.85-127.79,223.35,0,0-22.58,40.54-23,80.95a3.68,3.68,0,0,0,4.05,3.71c6.53-.69,19.64-3.62,28.9-15.85,1.09,6.53-4.81,19.44-4.81,19.44s65.67,51.25,165.49,51.64Z"/><path class="cls-3" d="M472.72,397.06l0,0a218.76,218.76,0,0,0-19.06-50.52c-2.85-163.13-130.67-225-130.67-225v0l0,0v127.1c-.45-.11-19.26-4.65-36.49-4.63-1.16,0-2.32,0-3.46.07s-2.3-.07-3.47-.07c-17.23,0-36,4.52-36.49,4.63V121.58l0,0v0s-127.82,61.85-130.67,225c0,0-24.05,43.22-23,84.91,0,0,20.14.84,32.93-16.06,1.09,6.53-4.81,19.45-4.81,19.45s-1.57-.9,1.73,1.35C134.68,415.67,156,399.63,179,386.9a46.94,46.94,0,0,1-5.6-22.53c0-.39,0-.78,0-1.17a47.73,47.73,0,0,1-1-9.74c0-22.38,15.34-40.53,34.26-40.53,12.08,0,22.7,7.41,28.8,18.6a67.25,67.25,0,0,1,5.06,8.55,311.32,311.32,0,0,1,28.85,71.59l2.52,1.66a21.71,21.71,0,0,0,22.74.73l.4-.23a312,312,0,0,1,30.22-75.18,26,26,0,0,1,2.47-3.59l2.49-3.05a37.78,37.78,0,0,1,5.38-6.57,29.6,29.6,0,0,1,5.13-4.82l.06.65A31.53,31.53,0,0,1,358.15,316c19.1,0,34.59,17.46,34.59,39a44.46,44.46,0,0,1-.34,5.46,44.46,44.46,0,0,1,.34,5.46,42.51,42.51,0,0,1-5.44,21c22.9,12.5,43.54,28.72,58.82,49a.71.71,0,0,0,1,.16c3.12-2.12,1.47-1.21,1.47-1.21s-5.9-12.92-4.81-19.45c12.79,16.9,32.93,16.06,32.93,16.06A136.7,136.7,0,0,0,472.72,397.06Z"/><ellipse class="cls-4" cx="218.68" cy="367.44" rx="16.48" ry="24.37"/><ellipse class="cls-5" cx="220.32" cy="369.12" rx="6.94" ry="10.75"/><path class="cls-6" d="M173.59,390.24l4.4-3a1.36,1.36,0,0,1,2,.52h0a1.35,1.35,0,0,1-.22,1.52l-3.8,4.13a1.35,1.35,0,0,1-2.16-.23,14.75,14.75,0,0,1-.68-1.32A1.34,1.34,0,0,1,173.59,390.24Z"/><path class="cls-7" d="M207,311.58c-20.67-1-39.25,14.29-43.3,35.45a.35.35,0,0,1-.24.28c-4.26,1.38-10.77,1.76-13.12,1.85a.36.36,0,0,0-.23.63c2,1.84,8.07,7.25,11.88,8.18a.38.38,0,0,1,.28.37c-.06,1.56,0,2.47,0,2.93a.36.36,0,0,1-.36.38,74.81,74.81,0,0,1-13.7-1.11.37.37,0,0,0-.36.6c2.85,3.36,11.56,13.56,14.54,13.05a.42.42,0,0,0,.14-.06,71.05,71.05,0,0,1,9.87-4.92.34.34,0,0,0,.22-.34c0-3.61.09-46,33.23-50.17,31-3.22,35.84,26.61,36.17,24.37C242,343.07,235.45,313,207,311.58Z"/><path class="cls-6" d="M180.6,402.29a1.56,1.56,0,0,1,.09-2.26l5.34-4.59.22.27a1.55,1.55,0,0,1,0,1.84L183,402.13a1.55,1.55,0,0,1-2.36.19Z"/><path class="cls-8" d="M283.92,486.33c99.82-.39,165.49-51.64,165.49-51.64s-5.9-12.91-4.81-19.44c9.26,12.23,22.37,15.16,28.9,15.85a3.69,3.69,0,0,0,4.06-3.71c-.46-40.41-23-80.95-23-80.95-2.59-148.5-108.87-213-127.8-223.35a1.94,1.94,0,0,0-2.87,1.71V246.43s-22.12-3.21-40.5-2.36h1.08c-18.39-.85-40.51,2.36-40.51,2.36V124.8a1.94,1.94,0,0,0-2.87-1.71c-18.93,10.32-125.2,74.85-127.79,223.35,0,0-22.58,40.54-23,80.95a3.68,3.68,0,0,0,4.05,3.71c6.53-.69,19.64-3.62,28.9-15.85,1.09,6.53-4.81,19.44-4.81,19.44s65.67,51.25,165.49,51.64Z"/><path class="cls-7" d="M283.92,407.33s12.9,0,20,10.63a2.21,2.21,0,0,1-1.33,3.37c-10.72,2.42-15.3,8.92-16.77,11.57a2.22,2.22,0,0,1-2,1.14h0a2.22,2.22,0,0,1-2-1.14c-1.46-2.65-6.05-9.15-16.76-11.57a2.21,2.21,0,0,1-1.33-3.37c7.12-10.63,20-10.63,20-10.63"/><ellipse class="cls-4" cx="349.12" cy="367.44" rx="16.48" ry="24.37"/><ellipse class="cls-5" cx="347.47" cy="369.12" rx="6.94" ry="10.75"/><path class="cls-6" d="M394.2,390.24l-4.4-3a1.36,1.36,0,0,0-2,.52h0a1.37,1.37,0,0,0,.22,1.52l3.8,4.13a1.35,1.35,0,0,0,2.16-.23,14.75,14.75,0,0,0,.68-1.32A1.33,1.33,0,0,0,394.2,390.24Z"/><path class="cls-7" d="M360.81,311.58c20.67-1,39.25,14.29,43.3,35.45a.38.38,0,0,0,.24.28c4.26,1.38,10.78,1.76,13.12,1.85a.36.36,0,0,1,.23.63c-2,1.84-8.07,7.25-11.88,8.18a.36.36,0,0,0-.27.37c.05,1.56,0,2.47,0,2.93a.36.36,0,0,0,.36.38,74.85,74.85,0,0,0,13.71-1.11.37.37,0,0,1,.35.6c-2.84,3.36-11.56,13.56-14.53,13.05a.39.39,0,0,1-.15-.06,71.1,71.1,0,0,0-9.86-4.92.35.35,0,0,1-.23-.34c0-3.61-.09-46-33.23-50.17-31-3.22-35.84,26.61-36.17,24.37C325.82,343.07,332.35,313,360.81,311.58Z"/><path class="cls-6" d="M387.19,402.29a1.55,1.55,0,0,0-.09-2.26l-5.34-4.59-.21.27a1.55,1.55,0,0,0,0,1.84l3.29,4.58a1.54,1.54,0,0,0,2.35.19Z"/><path class="cls-9" d="M331.52,430.14a62.66,62.66,0,0,1-35.91,22.12,60.12,60.12,0,0,1-59.74-21.49,3.48,3.48,0,0,0-3.57-1.26c-1.23.46-1.06,1.81-.37,2.67a68.28,68.28,0,0,0,39.27,24.13,66.58,66.58,0,0,0,45.63-6.94,65.67,65.67,0,0,0,19.44-16.56c.81-1-.7-2.49-1.48-2.93a2.49,2.49,0,0,0-3.27.26Z"/><path class="cls-10" d="M310.11,246c-2,31.4-26.37,53.88-26.37,53.88S259.69,277.43,257.68,246c0,0,17.48-1.89,26.76-1.89S310.11,246,310.11,246Z"/><path class="cls-10" d="M307.57,246.85c-1.24,18.44-10.48,35.83-22.68,49.18-.73.79-1.46,1.57-2.22,2.33L282,299c-.33.33.61-.57.25-.24l3.55-.47a71.93,71.93,0,0,1-8-9.12,93.13,93.13,0,0,1-13.68-24.89,70.53,70.53,0,0,1-4-19l-3,2.83c6.26-.68,12.54-1.23,18.83-1.61a165.69,165.69,0,0,1,25.16.82c2.61.24,5.22.5,7.82.8a3.71,3.71,0,0,0,3.41-1.81,1.43,1.43,0,0,0-1.19-2.23c-6.57-.76-13.17-1.37-19.78-1.71a179.43,179.43,0,0,0-25.49,1c-2.59.24-5.19.48-7.78.76-1.3.14-3.13,1.32-3,2.83,1.28,19.23,10.66,37.37,23.43,51.52,1,1.1,2,2.19,3.07,3.2.9.83,2.8.22,3.55-.48a80,80,0,0,0,9-10.07,96.2,96.2,0,0,0,14.46-26.21,73,73,0,0,0,4-19.6c.09-1.31-1.91-1.29-2.71-1A3.14,3.14,0,0,0,307.57,246.85Z"/><path class="cls-11" d="M243.93,189.16c-57.16,7.11-98.68,32.4-98.68,32.4s33.89-65.47,95.84-98.49a1.94,1.94,0,0,1,2.84,1.73Z"/><path class="cls-11" d="M422.55,221.56s-41.52-25.29-98.69-32.4V124.87a2,2,0,0,1,2.91-1.69C339.83,130.57,393.72,163.67,422.55,221.56Z"/><path class="cls-12" d="M86.34,460.56c6.72,3,24.57,10.54,32.4,16.17,10,7,12.92,19.51,5.31,35.39s-21,19-44.68,9.3c-8.66,17.29-9.77,29.13-9.53,33.05.06.85-.79,1.31-1.75,1.06-6.74-1.75-20.39-8.09-25.08-10.71-.81-.58-1.07-1.39-.37-1.89,2.73-1.85,8.54-7.79,11.83-12.27,4.1-5.77,20.84-43.31,26-53.84a30.41,30.41,0,0,0,3.5-15.1A1.58,1.58,0,0,1,86.34,460.56Zm14.87,11.65s-18.12,41.38-20.13,45c12.16,5,20.21,4,27.86-13.42C120.4,479.67,101.17,472.35,101.21,472.21Zm17,9.72c.31,1.44,1.14,2.91,2.06,3.27a1.42,1.42,0,0,0,1.35-.29c.84-.81-.09-2.48-1.42-4a17.47,17.47,0,0,0-3.33-2.64A13,13,0,0,1,118.23,481.93Z"/><path class="cls-12" d="M137.11,544.2c6.68-1.94,9.65-5.86,11-8.77,1.59-7.46,1.14-13.27-3.52-14.54-6.78-1.94-11.53,10.87-12.23,14.81a4.78,4.78,0,0,0,.18,2.93c.21.55-.49,1-1.23.88-5.56-1.63-9.92-4.59-11.7-7.65a2.36,2.36,0,0,1-.07-2c1.64-3.51,9.63-17.38,24.82-13.53,0,.06,25.16,5.35,18.28,24.44.06,0-11.7,36.56-10.56,43.76.07.49-.45,1-1.21.79-4.25-.57-15.39-2.87-17.34-7.92a11.13,11.13,0,0,1,.38-4,15.34,15.34,0,0,1-12.42,2.86c-14.87-3.06-12.35-14.3-12.3-14.39C112.6,549.24,127.16,547.09,137.11,544.2Zm-12.56,21.4a4,4,0,0,0,2.82,3.76c2.57.8,6.77-.47,10-6.18a55.64,55.64,0,0,1,2.78-6.16,105.6,105.6,0,0,0,4.56-10.39,33.77,33.77,0,0,1-6.46,3.17C130.29,552.78,124.9,560.75,124.55,565.6Zm30.61-41.93a7.24,7.24,0,0,1,1,2.18c.21.53.05,1.11.43,1.69,1.4,2.12,2.32,1.42,2.31,1.42.5-.49,0-1.89-1-3.09A15.56,15.56,0,0,0,155.16,523.67Z"/><path class="cls-12" d="M152.63,610.54c2.1-3.4,8.25-16.48,15-46.6,0,0,7.14-29.89,8.37-37.41.39-1.61,8-.36,9.29-.1s6.43,1.64,6.11,3.28c-.61,2.2-1.79,7.24-3.22,14.4,2.82-6,8-13.59,15.17-13.42,11.69.33,21.06,10.63,14.18,35.52-7.11,25.51-22.29,28.61-27.91,27.07-3.76-1-6.66-4.47-8.32-8.83-2.62,19.17-3.13,28.37-3.2,30.83a1.35,1.35,0,0,1-1.22,1c-6.9.42-18.95-2.7-23.22-4.07C152.74,611.82,152.29,611.09,152.63,610.54Zm37.25-24c6.58,1.79,14.1-22.61,14.05-22.61,6.49-24.21-1.18-26.69-1.15-26.7-6.26-.76-14.13,15.19-17.28,22.32C184.84,572,186.33,585.58,189.88,586.53Zm19.69-51.43c.63.4,1,1.54,1.54,2.39.47,1.46,1,2.46,2.18,1.71,1.11-.45,0-2.3-1.1-3.08A5.11,5.11,0,0,0,209.57,535.1Z"/><path class="cls-12" d="M249,536.1s23-.44,19,29.74a1.53,1.53,0,0,1-1.3,1.33,83.69,83.69,0,0,1-27.66-.6c-.1,1.21-.21,2.42-.32,3.64-.67,9.69-2.24,25,6.2,25.51l.19,0c7.46,1,8-15.8,8.08-20.2,0-.46.61-.88,1.35-1,6.76.22,10.5,3.51,11.57,4.92.37.17.35.62.34.93-2.62,21.18-21.7,20-21.66,19.89-25.54-.87-22.07-29.9-22.08-29.76C226,534.94,249,536.12,249,536.1Zm-9.21,25.5A61.82,61.82,0,0,0,254,562.79c2.28-15.4-1.1-20-2.88-21.36a2,2,0,0,0-2-.29C244.91,542.67,241.53,551.83,239.76,561.6Zm18.37-18.84c.62,1.25,1.25,2.65,2.15,1.78.72-.73.08-1.67-1.08-2.64a7.4,7.4,0,0,0-2.33-1.19A9.76,9.76,0,0,1,258.13,542.76Z"/><path class="cls-12" d="M275.69,537.87a31.68,31.68,0,0,1,8.14-1c2.2,0,10.84.32,10.92,3.19a59.61,59.61,0,0,0-.53,6.1c1.8-4.46,4.73-8.34,9.13-8.69,0,0,9.91-1,12,9.38,0,.1,0,.2,0,.3,0,4.89-5.7,6.77-8.14,7.34-.53,0-.89-.26-.91-.56.37-6.57-.84-10-3.23-9.6-5.06.83-8.78,18.56-9.94,26.65-.23,15.21-.06,24.94,0,29,.21.6-.55,1.38-1.32,1.54a23.15,23.15,0,0,1-14.06-1.76,1.53,1.53,0,0,1-.94-1.23c-.13-7.76-.7-35.29-.69-35.29s-.2-14.15-1.9-23.76A1.42,1.42,0,0,1,275.69,537.87Zm31.35,2a8.67,8.67,0,0,1,1.47,1.9c.75,1.17,1.35,2.51,2.33,1.69.82-.81-.29-2-1.35-2.66A9.41,9.41,0,0,0,307,539.88Z"/><path class="cls-12" d="M318.06,506.07c7.39-1.36,17.31-3.44,28.68-3.59,1.12,0,1.75,1,.9,1.71a11.66,11.66,0,0,0-4,9.33c-.47,13,6.16,69.61,6.28,70.51.59,6.07,4.37,9.86,6,11.78.47.55.17,1.2-.59,1.31a223.06,223.06,0,0,1-22.84,2.8c-1,.09-1.61-.62-1.1-1.43a23.42,23.42,0,0,0,1.69-4.59c1.14-3.77-4.18-39.17-4.41-40.21,0-.06,0-.11,0-.16.31-3.85-4.11-36-4.08-36s-.65-8.16-6.61-10.87A.32.32,0,0,1,318.06,506.07ZM338.6,509c.48,2.55,1.61,2.4,1.61,2.4,2-.1,1.12-2.6,1.12-2.6-.73-3-5.83-2.62-5.83-2.63S338,507.05,338.6,509Z"/><path class="cls-12" d="M416,582.12a1,1,0,0,1-.07,1.27,23.82,23.82,0,0,1-14.71,5.17,3,3,0,0,1-2.93-1.53c-3-7.43-6.48-34.23-8-44.65-1.28-9.53-3.85-9.1-4-9.07l-.17,0C381,535,380,551.6,379.59,558.2c2.81,17,5.07,27.52,5.93,31.84.31.56-.33,1.31-1.06,1.61-4.23,1.61-10.45,2.11-14.18.87a1.55,1.55,0,0,1-1.15-1c-1.47-7.62-6.85-34.63-6.84-34.63s-2.32-14-6-23.06a1.4,1.4,0,0,1,.91-1.84,32.37,32.37,0,0,1,7.87-2.43c2-.33,10.63-1.39,11.18,1.27.15,2.45.48,5.8.94,9,1.15-5.82,3.51-12,8.58-13.5,9.75-2.69,19.06,9.57,23.59,34.65C409.35,560.91,413.26,578.44,416,582.12ZM392,528.72a5.44,5.44,0,0,0-2.68-.15c.57.18,1.32,1.1,2,1.87.95,1,1.71,1.94,2.71.92C394.87,530.52,393.3,529.18,392,528.72Z"/><path class="cls-12" d="M434.28,542.29c4.37-5.41,4.58-10.32,4.06-13.51-3-7-6.68-11.54-11.23-9.9-6.67,2.28-3.23,15.5-1.56,19.14a4.91,4.91,0,0,0,1.84,2.3c.48.33.14,1.07-.51,1.42-5.49,1.85-10.74,1.91-13.93.42a2.41,2.41,0,0,1-1.18-1.57c-.66-3.82-2.09-19.76,12.57-25.3,0,.06,23.78-10,29.08,9.54.05,0,11.32,36.69,16.39,41.93.34.36.19,1.07-.54,1.35-3.85,2-14.36,6.49-18.85,3.46a10.75,10.75,0,0,1-2-3.51,15.4,15.4,0,0,1-8.56,9.47c-13.92,6-18.26-4.68-18.27-4.78C417.1,560.44,427.76,550.36,434.28,542.29ZM436.22,567a4,4,0,0,0,4.47,1.46c2.56-.81,5.28-4.26,4.69-10.8a53.34,53.34,0,0,1-1.24-6.64,108,108,0,0,0-2.2-11.14,33.69,33.69,0,0,1-3.5,6.3C433.59,553.24,433.73,562.86,436.22,567Zm1.14-51.92a7.36,7.36,0,0,1,2.07,1.21c.48.31.69.89,1.33,1.14,2.37.94,2.73-.16,2.73-.16.12-.69-1.12-1.54-2.57-2A15.22,15.22,0,0,0,437.36,515.12Z"/><path class="cls-12" d="M522.23,541.8a1,1,0,0,1,.2,1.26,24.69,24.69,0,0,1-13.54,8.32c-1.38.31-2.77.12-3.22-.85-4.55-6.6-13.61-32.07-17.31-41.93-3.27-9.05-5.74-8.06-6.05-7.92-4.7,2.69-2.42,19.28-1.27,25.75,6.59,16.54,11.17,26.65,12.75,30.28.3.2.12.77-.36,1.15-3.61,2.56-9.36,3.64-13.73,3.75a1.25,1.25,0,0,1-1.12-.7c-3-6.84-14.07-32.21-14.06-32.22-11.66-26.46-17.9-41-21.34-44.88-.32-.37,0-1,.53-1.35,6.7-3.91,14.79-6.07,19.48-4.5.42.15.55.42.73.84.84,3.12,3.49,11.93,10.73,31.17-.12-6.09.77-13.46,5.81-16.15,9.12-4.77,21,5.15,30.69,28.7C511.16,522.52,518.72,538.81,522.23,541.8Zm-59.76-60.53c-.83-3.12-5.52-1.09-5.52-1.1,1-.24,1.63.46,2.33.83s1.15,1,1.79,1.21C462.65,482.52,462.47,481.27,462.47,481.27ZM487,494.94a6.19,6.19,0,0,0-2.86.52,5.56,5.56,0,0,1,2.57,1.31c1.16.79,1.94,1.6,2.72.37C490.1,496.13,488.26,495.17,487,494.94Z"/><path class="cls-9" d="M157.18,482.86a1.76,1.76,0,0,1,1.23,1.74v.4c-.21.71-.84,1.08-1.89,1.12,0,0-1.87-.46-5.56-1.58l-.25,0c0,.17-.05.33-.07.49q-1.78,6.09-3.38,11.11c-.23.71-.45,1.41-.67,2.11-.76,2.31-1.51,4.62-2.27,6.93a1.85,1.85,0,0,1-3.54-.83.59.59,0,0,0,0-.13c.83-2.48,1.67-4.95,2.49-7.42.16-.47.31-.93.46-1.39q1.75-5.37,3.66-11.68c0-.05-.05-.09-.07-.14l-.09,0c-1-.32-3.05-.82-6.17-1.54a1.74,1.74,0,0,1-1.18-1.78l.12-.36c.39-1.12,1.51-1.35,3.37-.72C147.7,480.13,152.3,481.38,157.18,482.86Z"/><path class="cls-9" d="M170.1,487.42a2.53,2.53,0,0,1,2,2.47c0,.16-.05.32-.07.48-.27,1-1.08,1.56-2.45,1.65l-.45-.06-.45-.12a2.36,2.36,0,0,1-1.73-2.34l.06-.43a2.17,2.17,0,0,0,.07-.24c.26-1,1.1-1.46,2.51-1.51Zm-1.82,6.29a1.76,1.76,0,0,1,1.3,1.78l-4.38,15.76c-.23.84-.95,1.19-2.18,1-1.1-.49-1.53-1.17-1.29-2q4.56-16.25,4.86-16.16A1.81,1.81,0,0,1,168.28,493.71Z"/><path class="cls-9" d="M189,499c3.45.75,5.41,2.65,5.88,5.75a7.88,7.88,0,0,1-.08,2.82c-.08.44-.17.88-.26,1.32-.19,1-1,1.37-2.44,1.23A52.33,52.33,0,0,1,184,509l-3.4-.83-.12.49a4.18,4.18,0,0,0,.33,3A5.08,5.08,0,0,0,184,514a11,11,0,0,0,4.37.29,10.39,10.39,0,0,1,2.93-.22,1.49,1.49,0,0,1,1.11,2c-.47,1-1.56,1.52-3.27,1.68a19.46,19.46,0,0,1-5.92-.49,8.35,8.35,0,0,1-5.87-4.56,10.84,10.84,0,0,1-.09-6.56C179.09,500.37,183,498.08,189,499Zm-7.34,6.16,3,.75a43,43,0,0,0,6.56.95.5.5,0,0,1,0-.12c.53-2.54-.39-4.06-2.76-4.62-3.2-.57-5.46.35-6.8,2.83Z"/><path class="cls-9" d="M206.81,502.29c1.08.19,1.63.72,1.66,1.6-.1.59-.19,1.19-.29,1.79,1.11-1.81,3.17-2.45,6.23-2h.09c5.05.79,7.34,4.18,6.87,10.29-.79,5.73-1.31,8.78-1.57,9.17a1.82,1.82,0,0,1-1.62.57h0c-1.16-.33-1.68-.93-1.55-1.81l1.2-8.15c.57-4-.79-6.21-4.07-6.81a6,6,0,0,0-6.14,2.3l-1.86,10.88a1.69,1.69,0,0,1-2.09,1.14,1.74,1.74,0,0,1-1.47-1.63q0-.48,2.61-15.75C205.11,502.65,205.78,502.11,206.81,502.29Z"/><path class="cls-9" d="M247.34,500.59l.18,0c1,.29,1.48.83,1.42,1.61,0,0,0,.09,0,.14-.32,1.87-.7,5.1-1.13,9.67q-.78,9.83.25,12.94c0,.06,0,.12,0,.17a1.68,1.68,0,0,1-1.54,1.56l-.41,0c-1.15-.09-1.82-1.09-2-3,0,0-.08-.25-.12-.75a7.48,7.48,0,0,1-3,2,9.37,9.37,0,0,1-4.31.59l-.54,0c-3.25-.33-5.26-2-6-5a9,9,0,0,1-.14-3,13.67,13.67,0,0,1,5-9.5,7.81,7.81,0,0,1,5.07-1.23,15.67,15.67,0,0,1,4.62,1.31c0-.06,0-.12,0-.18.53-4.49.89-6.73,1.1-6.72A1.86,1.86,0,0,1,247.34,500.59ZM233.6,518.05a4.21,4.21,0,0,0,.83,3.29,3.7,3.7,0,0,0,2.11.85l.48,0c2.21.22,4.42-.76,6.59-3,.14-3.63.27-6.2.41-7.7h-.12a11,11,0,0,0-4.12-1.39c-2.54-.25-4.45,1.53-5.79,5.37Z"/><path class="cls-9" d="M262,501.85a2.5,2.5,0,0,1,2.42,2l0,.48c0,1-.72,1.76-2,2.14l-.45,0-.47,0a2.33,2.33,0,0,1-2.16-1.91l0-.43c0-.08,0-.17,0-.25,0-1,.76-1.66,2.11-2Zm-.42,6.54a1.74,1.74,0,0,1,1.63,1.46q-.45,8.16-.91,16.33c0,.87-.67,1.37-1.89,1.48-1.17-.25-1.72-.82-1.68-1.71q1-16.85,1.29-16.83A1.76,1.76,0,0,1,261.53,508.39Z"/><path class="cls-9" d="M278.94,501.63q1.59,0,1.71,1.29c0,1.95.07,3.9.11,5.85,2.23,0,3.34.07,3.34.22a1.59,1.59,0,0,1,.91,1.39v.06c0,.94-.6,1.5-1.81,1.67h-2.4q0,7.2,0,14.42c0,.62-.43,1.1-1.27,1.42a1.39,1.39,0,0,1-.56.09,1.78,1.78,0,0,1-1.75-1.26l-.06-.37q0-7.1.1-14.17l-2.83.1a1.8,1.8,0,0,1-1.73-1.47.53.53,0,0,0,0-.13,1.73,1.73,0,0,1,1.14-1.64,14.4,14.4,0,0,1,3.47-.2c0-2-.06-3.95-.08-5.92C277.27,502.16,277.83,501.72,278.94,501.63Z"/><path class="cls-9" d="M308.66,511.92q1.05,10.53,2.51,13.47a1.09,1.09,0,0,1,0,.18,1.67,1.67,0,0,1-1.3,1.75l-.41.08c-1.15.06-2-.83-2.39-2.69,0,0-.11-.24-.21-.73a7.41,7.41,0,0,1-2.67,2.38,9.44,9.44,0,0,1-4.19,1.19l-.55,0c-3.25.12-5.47-1.26-6.64-4.08a9.24,9.24,0,0,1-.54-2.92,13.7,13.7,0,0,1,3.59-10.09,7.89,7.89,0,0,1,4.85-1.92,18.85,18.85,0,0,1,4.85.53C307.41,509.5,308.44,510.44,308.66,511.92Zm-12.8,8.62a4.19,4.19,0,0,0,1.28,3.14,3.63,3.63,0,0,0,2.2.55l.49,0c2.22-.08,4.27-1.36,6.11-3.83-.37-3.61-.58-6.17-.66-7.68h-.12a10.81,10.81,0,0,0-4.26-.81c-2.55.1-4.2,2.13-5,6.12C295.89,518.86,295.88,519.7,295.86,520.54Z"/><path class="cls-10" d="M350.24,251.58a235,235,0,0,0-50-8.5,237.95,237.95,0,0,0-79.6,8.58,2.93,2.93,0,0,0-2.07,1.92c-.13.94.79,1.08,1.49.88a232.69,232.69,0,0,1,49.35-8.4A234.44,234.44,0,0,1,348,254.53c1.37.39,4.21-2.4,2.25-2.95Z"/></svg>