<svg id="Capa_1" data-name="Capa 1" xmlns="http://www.w3.org/2000/svg" xmlns:xlink="http://www.w3.org/1999/xlink" viewBox="0 0 566.93 708.66"><defs><style>.cls-1,.cls-8{fill:#fff;}.cls-13,.cls-15,.cls-2{fill:none;}.cls-14,.cls-3{fill:#fe76a6;}.cls-4{clip-path:url(#clip-path);}.cls-5{clip-path:url(#clip-path-2);}.cls-6{fill:#ffdcb2;}.cls-7{fill:#56242e;stroke:#56242e;stroke-width:4.22px;}.cls-10,.cls-12,.cls-13,.cls-14,.cls-15,.cls-7,.cls-8,.cls-9{stroke-miterlimit:10;}.cls-10,.cls-12,.cls-8,.cls-9{stroke:#54252e;}.cls-8{stroke-linecap:round;}.cls-10,.cls-8{stroke-width:2.81px;}.cls-10,.cls-11,.cls-12,.cls-9{fill:#54252e;}.cls-9{stroke-width:0.7px;}.cls-12{stroke-width:5.62px;}.cls-13{stroke:#fe76a6;stroke-width:4.7px;}.cls-14{stroke:#fff;stroke-width:0.47px;}.cls-15{stroke:#b24aa6;stroke-width:9.4px;}</style><clipPath id="clip-path"><path class="cls-1" d="M468.63,165.8C418.57,115.74,355,92.47,284.21,92.47s-133.94,23.53-184,73.59S18.43,280.36,18.43,351.15A265,265,0,0,0,470.88,538.56,263.31,263.31,0,0,0,548.5,351.15C548.5,280.36,518.69,215.86,468.63,165.8Z"/></clipPath><clipPath id="clip-path-2"><path class="cls-2" d="M470.88,166.92A265.06,265.06,0,1,0,548.5,354.33,263.32,263.32,0,0,0,470.88,166.92Z"/></clipPath></defs><title>Mesa de trabajo 34</title><rect class="cls-3" width="566.93" height="708.66"/><path class="cls-1" d="M468.63,165.8C418.57,115.74,355,92.47,284.21,92.47s-133.94,23.53-184,73.59S18.43,280.36,18.43,351.15A265,265,0,0,0,470.88,538.56,263.31,263.31,0,0,0,548.5,351.15C548.5,280.36,518.69,215.86,468.63,165.8Z"/><g class="cls-4"><path class="cls-1" d="M535.06,544l0,0a284.29,284.29,0,0,0-29.62-63.17C484.83,270.6,315,204.35,315,204.35v0h0l13.24,164c-.58-.09-25.09-4-47.12-2.1-1.48.13-3,.28-4.42.46s-2.94.15-4.43.28c-22,1.8-45.59,9.65-46.15,9.84l-13.25-164h0S55.91,306.22,69.27,517c0,0-26.24,58.33-20.55,112,0,0,25.82-1,40.41-24.22C91.2,613.14,85,630.44,85,630.44s-2.1-1,2.35,1.55c17.58-28.13,43.22-51.11,71.21-70a61,61,0,0,1-9.51-28.47c0-.51-.06-1-.09-1.52a62.82,62.82,0,0,1-2.29-12.46c-2.34-28.89,15.37-53.94,39.55-55.94,15.45-1.29,29.79,7.15,38.75,20.94,2.79,3.05,5.22,7.28,7.37,10.5a404.59,404.59,0,0,1,44.32,89.33l3.39,1.88a27.66,27.66,0,0,0,29.15-1.48l.49-.34a406.76,406.76,0,0,1,30.79-100.23,33.11,33.11,0,0,1,2.77-4.88l2.87-4.21a48.93,48.93,0,0,1,6.2-9.05,38.29,38.29,0,0,1,6.05-6.77c.05.28.09.56.14.84a40.26,40.26,0,0,1,21.66-8.66c24.41-2,46,18.87,48.27,46.66a58,58,0,0,1,.13,7.08,59,59,0,0,1,1,7,55.64,55.64,0,0,1-4.77,27.67c30.57,13.7,58.65,32.45,80.29,57a.9.9,0,0,0,1.24.1c3.77-3.07,1.75-1.71,1.75-1.71s-8.88-16-8.17-24.59C518,591.17,543.69,588,543.69,588,542.85,572.85,539.48,557.8,535.06,544Z"/><ellipse class="cls-1" cx="212.09" cy="508.24" rx="21.14" ry="31.55" transform="translate(-39.32 18.26) rotate(-4.51)"/><ellipse class="cls-1" cx="214.37" cy="510.23" rx="8.9" ry="13.92" transform="translate(-39.6 18.51) rotate(-4.53)"/><path class="cls-1" d="M152,566.9l5.31-4.29a1.73,1.73,0,0,1,2.57.46h0a1.77,1.77,0,0,1-.12,2l-4.42,5.74a1.72,1.72,0,0,1-2.79-.08,19,19,0,0,1-1-1.63A1.75,1.75,0,0,1,152,566.9Z"/><path class="cls-1" d="M186.5,461.85c-26.52.89-48.67,22.61-51.64,50.34a.47.47,0,0,1-.28.39c-5.3,2.23-13.59,3.41-16.57,3.78a.48.48,0,0,0-.23.85c2.71,2.15,11.07,8.49,16,9.29a.45.45,0,0,1,.39.45c.09,2,.21,3.19.28,3.78a.47.47,0,0,1-.42.52,95.89,95.89,0,0,1-17.63,0,.48.48,0,0,0-.39.81c4,4,16.18,16.27,19.93,15.29a.51.51,0,0,0,.18-.09,90.36,90.36,0,0,1,12.09-7.39.47.47,0,0,0,.26-.46c-.44-4.66-4.68-59.34,37.24-68.27,39.31-7.45,48.58,30.53,48.77,27.61C234.51,498.78,223,460.63,186.5,461.85Z"/><path class="cls-1" d="M162.24,581.71a2,2,0,0,1-.12-2.93l6.35-6.49.3.33A2,2,0,0,1,169,575l-3.73,6.26a2,2,0,0,1-3,.5Z"/><path class="cls-1" d="M303.05,679.2C430.59,668.1,509.18,595,509.18,595s-8.88-16-8.17-24.58c13.11,14.8,30.17,17.19,38.59,17.39a4.76,4.76,0,0,0,4.8-5.22c-4.79-52.11-37.87-102-37.87-102C487.74,289.2,345.19,217.22,319.91,205.9a2.5,2.5,0,0,0-3.49,2.52L329.33,368.2s-28.83-4.63-52.24-1.57l1.38-.11c-23.59.84-51.3,10.16-51.3,10.16L214.27,216.9a2.49,2.49,0,0,0-3.85-1.91C187.3,230.33,58.2,324.87,70.36,516.78c0,0-24.63,54.71-21,106.91a4.73,4.73,0,0,0,5.57,4.36c8.28-1.58,24.73-6.76,35.29-23.52,2.07,8.3-4.12,25.6-4.12,25.6S175.37,689.29,303,679.21Z"/><path class="cls-1" d="M294.82,577.26s16.49-1.37,26.7,11.59a2.86,2.86,0,0,1-1.35,4.48C306.73,597.59,301.55,606.47,300,610a2.87,2.87,0,0,1-2.38,1.69h0a2.86,2.86,0,0,1-2.62-1.28c-2.14-3.26-8.68-11.16-22.63-13.15a2.86,2.86,0,0,1-2.05-4.2c8-14.47,24.49-15.84,24.49-15.84"/><ellipse class="cls-1" cx="396.43" cy="488.75" rx="21.14" ry="31.55" transform="translate(-37.21 32.69) rotate(-4.51)"/><ellipse class="cls-1" cx="394.49" cy="491.09" rx="8.9" ry="13.92" transform="translate(-37.53 32.67) rotate(-4.53)"/><path class="cls-1" d="M434,543.49l-5.94-3.36a1.72,1.72,0,0,0-2.45.88h0a1.74,1.74,0,0,0,.43,1.93l5.29,4.93a1.72,1.72,0,0,0,2.74-.53c.25-.54.51-1.15.73-1.77A1.76,1.76,0,0,0,434,543.49Z"/><path class="cls-1" d="M383.12,445.53c26.31-3.5,51.65,14.27,59,41.15a.47.47,0,0,0,.34.33c5.59,1.33,13.95,1.13,17,1a.47.47,0,0,1,.36.8c-2.34,2.57-9.56,10.2-14.33,11.81a.47.47,0,0,0-.32.51c.24,2,.31,3.18.34,3.77a.46.46,0,0,0,.5.45,95.53,95.53,0,0,0,17.4-2.88.48.48,0,0,1,.52.73c-3.29,4.64-13.36,18.72-17.22,18.38a.6.6,0,0,1-.19-.06,90.27,90.27,0,0,0-13.12-5.29.45.45,0,0,1-.32-.42c-.32-4.67-4.91-59.32-47.7-61.22-40-.86-43,38.14-43.7,35.29C341.67,489.88,346.88,450.35,383.12,445.53Z"/><path class="cls-1" d="M426.29,559.78a2,2,0,0,0-.36-2.9l-7.3-5.36-.24.38a2,2,0,0,0,.15,2.37l4.68,5.57a2,2,0,0,0,3,0Z"/><path class="cls-1" d="M361.21,603.1a81.59,81.59,0,0,1-61.36,36.45h-.06a81.22,81.22,0,0,1-66.39-25.84"/><path class="cls-1" d="M311.48,366.32c.72,40.73-28.08,72.33-28.08,72.33s-33.09-26.47-38.92-66.77c0,0,22.14-4.29,34-5.28S311.48,366.32,311.48,366.32Z"/><path class="cls-1" d="M221,300c-72.33,15.24-122.76,52.29-122.76,52.29S134.72,264.16,210.45,215a2.49,2.49,0,0,1,3.82,1.92Z"/><path class="cls-1" d="M452.64,322.81s-55.7-28.23-129.51-31.34l-6.7-83A2.5,2.5,0,0,1,320,206C337.44,214.17,409.77,251.17,452.64,322.81Z"/><path class="cls-1" d="M362,370.54A300.77,300.77,0,0,0,197.4,384.21"/><circle class="cls-1" cx="286.95" cy="355.16" r="262.69"/><path class="cls-1" d="M222.05,182.44a90.76,90.76,0,0,0,9.23-4.09l.84-.62q.91-.94,1.89-1.86c-1.68-2.47-3.53-5.22-5.54-8.28-2.11-5.25-21.53-34.69-22.79-37.17-.23-.32-.38-.53-.77-.58-4.22-.5-10.67,2.74-15.64,7.21-.4.42-.54,1-.2,1.23,3.58,2.67,11.38,13.84,25.86,34.11C214.93,172.4,218.24,177.06,222.05,182.44Z"/><path class="cls-1" d="M261,155s.28,9.46.53,18.07a44.78,44.78,0,0,0,10.5,1.3c1-.12,2-.25,3-.34-.08-4.25-.13-9.42-.11-15.53,1.16-5.53,1.3-40.8,1.63-43.57,0-.39,0-.65-.32-.9-3.24-2.76-10.4-3.64-17-2.67-.57.13-1,.51-.85.91C259.87,116.49,260.17,130.11,261,155Z"/><path class="cls-1" d="M344.71,126c-5.43-3.91-12.19-6.42-16.34-5.47-.37.09-.5.32-.7.66-1,2.61-17.09,34-18.61,39.43-3.24,6.3-6,11.44-8.18,15.46,2,1.58,3.88,3.3,5.92,4.66a26.87,26.87,0,0,1,4,1.59l1.95.09c4.49-8.09,10.29-18.5,10.29-18.5,12.19-21.72,18.73-33.68,22-36.72C345.35,126.93,345.15,126.39,344.71,126Z"/></g><g class="cls-5"><path class="cls-6" d="M535.06,547.14l0,0A284,284,0,0,0,505.47,484C484.83,273.78,315,207.53,315,207.53v0l0,0,13.24,164c-.58-.09-25.09-4-47.12-2.1-1.48.12-3,.27-4.42.45s-2.94.16-4.43.28c-22,1.8-45.59,9.66-46.15,9.85L212.86,216l0,0h0S55.91,309.39,69.27,520.21c0,0-26.24,58.33-20.55,112,0,0,25.82-1.05,40.41-24.22C91.2,616.32,85,633.62,85,633.62s-2.1-1,2.35,1.55c17.58-28.14,43.22-51.11,71.21-70a61.09,61.09,0,0,1-9.51-28.48c0-.5-.06-1-.09-1.51a62.82,62.82,0,0,1-2.29-12.46c-2.34-28.89,15.37-53.94,39.55-55.95C201.68,465.52,216,474,225,487.75c2.79,3.05,5.22,7.27,7.37,10.5a404.59,404.59,0,0,1,44.32,89.33l3.39,1.87A27.64,27.64,0,0,0,309.21,588l.49-.34a406.63,406.63,0,0,1,30.79-100.23,32.71,32.71,0,0,1,2.77-4.89l2.87-4.2a48.6,48.6,0,0,1,6.2-9.05,38.29,38.29,0,0,1,6.05-6.77c.05.28.09.56.14.84a40.19,40.19,0,0,1,21.66-8.66c24.41-2,46,18.86,48.27,46.66a57.92,57.92,0,0,1,.13,7.08,59,59,0,0,1,1,7,55.64,55.64,0,0,1-4.77,27.67c30.57,13.7,58.65,32.44,80.29,57a.9.9,0,0,0,1.24.1c3.77-3.07,1.75-1.71,1.75-1.71s-8.88-16-8.17-24.59c18.11,20.45,43.76,17.23,43.76,17.23C542.85,576,539.48,561,535.06,547.14Z"/><ellipse class="cls-7" cx="212.09" cy="511.42" rx="21.14" ry="31.55" transform="translate(-39.57 18.26) rotate(-4.51)"/><ellipse class="cls-8" cx="214.37" cy="513.41" rx="8.9" ry="13.92" transform="translate(-39.85 18.52) rotate(-4.53)"/><path class="cls-9" d="M152,570.08l5.31-4.29a1.72,1.72,0,0,1,2.57.46h0a1.75,1.75,0,0,1-.12,2L155.37,574a1.71,1.71,0,0,1-2.79-.07,19,19,0,0,1-1-1.63A1.75,1.75,0,0,1,152,570.08Z"/><path class="cls-10" d="M186.5,465c-26.52.89-48.67,22.61-51.64,50.34a.48.48,0,0,1-.28.39c-5.3,2.23-13.59,3.41-16.57,3.78a.47.47,0,0,0-.23.84c2.71,2.16,11.07,8.5,16,9.3a.45.45,0,0,1,.39.45c.09,2,.21,3.19.28,3.78a.47.47,0,0,1-.42.52,95.89,95.89,0,0,1-17.63,0,.47.47,0,0,0-.39.8c4,4,16.18,16.27,19.93,15.3l.18-.09a90.36,90.36,0,0,1,12.09-7.39.47.47,0,0,0,.26-.46c-.44-4.66-4.68-59.34,37.24-68.27,39.31-7.45,48.58,30.53,48.77,27.6C234.51,502,223,463.81,186.5,465Z"/><path class="cls-9" d="M162.24,584.88a2,2,0,0,1-.12-2.92l6.35-6.49.3.33a2,2,0,0,1,.23,2.37l-3.73,6.26a2,2,0,0,1-3,.49Z"/><path class="cls-6" d="M304.83,682.68A385.92,385.92,0,0,0,443.18,643.6c23.34-11.65,46-25.54,66-42.4.62-.52,3.37-2.2,3.53-3.08.09-.51-1.15-2.18-1.38-2.64-1.06-2.11-2.06-4.26-3-6.45-2-4.78-4.15-10.2-3.82-15.49l-7,.11c10.55,11.72,25.56,17.55,41.17,17.71,3.62,0,8.65-.09,9.23-4.69.28-2.26-.39-4.93-.69-7.18q-.53-3.93-1.25-7.82a205.53,205.53,0,0,0-7.72-29.18,282.82,282.82,0,0,0-20.09-45.1q-3.21-5.85-6.74-11.55a17.56,17.56,0,0,1-1.3-2,12.57,12.57,0,0,1-.39-3.27q-.39-3.72-.86-7.42a360,360,0,0,0-27.06-100,328.2,328.2,0,0,0-44.71-73.75,334.12,334.12,0,0,0-49.94-50.1A325.26,325.26,0,0,0,344.67,220q-7.38-4.26-15-8.05-2.59-1.28-5.23-2.48a14.23,14.23,0,0,0-7-.89c-2.21.14-4.44.57-4.48,3.21-.06,3.86.63,7.88.95,11.73L316,250l5.67,70.25,3.93,48.64.2,2.5,6.55-.29c-18.88-3-38.79-4-57.76-1.56-.92.12-1.33.23-.27.5a15,15,0,0,0,4.54,0l1.37-.12c.58,0,1.94,0,1.44-.49s-3.54-.17-4.15-.15c-18.16.72-36.53,4.69-53.75,10.46h6.91l-2.78-34.39-5.54-68.62-4.2-52c-.12-1.44-.18-2.9-.35-4.34a3,3,0,0,0-1.18-2.31c-1.37-.95-3.55-.74-5.11-.71a9.51,9.51,0,0,0-4.7.86,107,107,0,0,0-10.55,7.54,310.12,310.12,0,0,0-34.53,30.55,338,338,0,0,0-42,52.38,330.36,330.36,0,0,0-36.22,75.14A347.51,347.51,0,0,0,66.22,483.1c-.3,9.59-.22,19.18.19,28.76q.15,3.46.36,6.92a4.35,4.35,0,0,1-.06,1.54,25.88,25.88,0,0,1-1.22,2.88A283.13,283.13,0,0,0,53.59,559c-5,19-8.26,38.71-8.1,58.42q0,3.88.25,7.76c.12,2.13.3,4,2.17,5.34,2.83,2,7.78,1.3,11,.66a57.08,57.08,0,0,0,17.33-6.61,52,52,0,0,0,17.54-16.94l-7,.11c1.18,5.17-.07,10.86-1.28,15.91a96,96,0,0,1-2.84,9.69l.13.1c12.19,8.07,25.83,14.33,39.24,20a384.35,384.35,0,0,0,103.83,27.59,389.71,389.71,0,0,0,79,1.6c.56,0,2.27,0,1.25-.54s-3.67-.15-4.81-.06c-46.79,3.89-94.46-2.42-139.16-16.57-23.92-7.57-47.61-17.27-69.18-30.21-.89-.54-1.79-1.09-2.68-1.65-.14-.09-.53-.25-.62-.4-.18-.32.06.24.07-.25,0-1.08.84-2.55,1.16-3.58q1-3.33,1.79-6.72c1.1-4.8,2.19-10.16,1.08-15.05-.15-.65-6.6-.55-7,.11A52.12,52.12,0,0,1,62,628.11a57.49,57.49,0,0,1-5.72,1.95c-.72.2-1.45.38-2.18.55-.38.09-.77.16-1.15.26-2.66.68,4.35,1.22,2.35-.22-2.61-1.89-2.5-4.22-2.64-7.28-.16-3.44-.2-6.89-.14-10.34.43-24.12,5.58-48.11,13.05-71,2.11-6.48,4.42-12.9,7-19.19a21.49,21.49,0,0,0,1.25-2.93,14.17,14.17,0,0,0-.19-3.3c-.08-1.49-.16-3-.22-4.47-.15-3.34-.26-6.69-.32-10a366.23,366.23,0,0,1,5.06-68.89,332.41,332.41,0,0,1,39.12-109.08,337.22,337.22,0,0,1,53.81-70.31,288.23,288.23,0,0,1,40.2-33.95c.95-.65,2.11-1.73,3.24-2l-4,.23h.56l-2.46-.23c2.51.62,2.18,3.69,2.34,5.74l.9,11.18,3.08,38,7,86.85,1.63,20.17c.06.76,6.24.22,6.9,0,15.59-5.22,32.4-9.2,48.85-9.86l-2.72-.64-1.38.11,4.27.53c15.36-2,31.45-.87,46.71,1.57.61.1,6.6.32,6.55-.29l-4.45-55.11-7-86.18-1.12-13.94c-.16-1.93-1.3-6.58,1.48-7.08l-4.8.2c-1-.06.43.42.77.58l1.59.73q1.8.85,3.6,1.74,4.68,2.3,9.25,4.81c8.47,4.61,16.69,9.66,24.68,15.06A333.92,333.92,0,0,1,420,287.48a328.86,328.86,0,0,1,58.32,94,352.46,352.46,0,0,1,19,63.6q3.62,18,5.49,36.31a7.24,7.24,0,0,0,1.39,4.18q1.9,3,3.7,6.12a277.43,277.43,0,0,1,25.08,56.18c2,6.24,3.67,12.57,5,19q1,4.89,1.79,9.82c.48,3.1,1.34,6.62,1.14,9.76a4.86,4.86,0,0,1-1.47,3.27c-1.46,1.37-2.69.49,1.19.88-.4,0-.81,0-1.21-.05a49.9,49.9,0,0,1-5.44-.68,53.33,53.33,0,0,1-14.37-4.75,50.56,50.56,0,0,1-15.07-11.59c-.57-.62-7-.46-7,.11-.3,4.72,1.43,9.51,3.14,13.83,1.35,3.43,3.32,6.63,4.65,10,.37,1,.38.4,0,1a7.9,7.9,0,0,1-1.73,1.52,251.34,251.34,0,0,1-20.12,15.5A378.35,378.35,0,0,1,386,664.38a371.29,371.29,0,0,1-84.75,17.7c-.56,0-2.27,0-1.25.53S303.7,682.78,304.83,682.68Z"/><path class="cls-10" d="M294.82,580.43s16.49-1.37,26.7,11.6a2.86,2.86,0,0,1-1.35,4.48c-13.44,4.26-18.62,13.13-20.22,16.71a2.84,2.84,0,0,1-2.38,1.68h0a2.83,2.83,0,0,1-2.62-1.27c-2.14-3.26-8.68-11.16-22.63-13.15a2.86,2.86,0,0,1-2.05-4.2c8-14.47,24.49-15.84,24.49-15.84"/><ellipse class="cls-7" cx="396.43" cy="491.93" rx="21.14" ry="31.55" transform="translate(-37.46 32.7) rotate(-4.51)"/><ellipse class="cls-8" cx="394.49" cy="494.27" rx="8.9" ry="13.92" transform="translate(-37.78 32.68) rotate(-4.53)"/><path class="cls-9" d="M434,546.67l-5.94-3.36a1.72,1.72,0,0,0-2.45.88h0a1.74,1.74,0,0,0,.43,1.93l5.29,4.93a1.72,1.72,0,0,0,2.74-.53c.25-.54.51-1.15.73-1.78A1.75,1.75,0,0,0,434,546.67Z"/><path class="cls-10" d="M383.12,448.71c26.31-3.5,51.65,14.27,59,41.15a.47.47,0,0,0,.34.33c5.59,1.33,13.95,1.13,17,1a.47.47,0,0,1,.36.79c-2.34,2.58-9.56,10.21-14.33,11.82a.47.47,0,0,0-.32.51c.24,2,.31,3.18.34,3.77a.47.47,0,0,0,.5.45,95.53,95.53,0,0,0,17.4-2.88.48.48,0,0,1,.52.73c-3.29,4.64-13.36,18.72-17.22,18.38a.6.6,0,0,1-.19-.06,90.66,90.66,0,0,0-13.12-5.3.44.44,0,0,1-.32-.41c-.32-4.67-4.91-59.32-47.7-61.22-40-.86-43,38.14-43.7,35.29C341.67,493.06,346.88,453.53,383.12,448.71Z"/><path class="cls-9" d="M426.29,563a2,2,0,0,0-.36-2.9l-7.3-5.36-.24.37a2,2,0,0,0,.15,2.38l4.68,5.56a2,2,0,0,0,3,0Z"/><path class="cls-3" d="M357.81,606.1a81.19,81.19,0,0,1-42.2,32.37,75.54,75.54,0,0,1-13.24,3,69.49,69.49,0,0,1-13,.49,75.83,75.83,0,0,1-27-6.83,81.61,81.61,0,0,1-25.58-18.56c-.86-.93-3.22-.68-4.34-.58-.36,0-3.16.42-2.43,1.21a84.48,84.48,0,0,0,53.27,26.27c20.62,2,41.66-2.61,58.88-14.3a83.29,83.29,0,0,0,22.43-22.71c.62-.93-2.07-1.09-2.48-1.11a11.6,11.6,0,0,0-2.7.14c-.46.09-1.34.19-1.61.6Z"/><path class="cls-11" d="M311.48,369.5c.72,40.72-28.08,72.33-28.08,72.33s-33.09-26.47-38.92-66.77c0,0,22.14-4.29,34-5.28S311.48,369.5,311.48,369.5Z"/><path class="cls-11" d="M308,369.26c.22,14.31-3.33,28.48-9.13,41.51a125.21,125.21,0,0,1-15.12,25.31c-1.13,1.46-2.27,2.92-3.51,4.29l5.35-.08-.89-.74-1-.9c-.69-.6.46.42-.09-.08l-.78-.71c-2.85-2.65-5.55-5.44-8.13-8.35a115.91,115.91,0,0,1-19.82-30.35,91.59,91.59,0,0,1-7-23.86l-2.24,2.18c7.92-1.53,15.87-2.91,23.85-4.06a154.34,154.34,0,0,1,15.62-1.53l2-.07,1,0h.66l4.47-.06c2.79,0,5.57,0,8.36,0,3.4,0,6.8.1,10.2.21,1.32.05,3.31-.5,3.1-2.21s-2.33-2.63-3.77-2.68c-8.64-.28-17.29-.35-25.93-.1-10.86.31-21.56,2-32.24,3.91q-4.86.84-9.71,1.77c-1.08.21-2.43.85-2.23,2.19a102.84,102.84,0,0,0,16,40.84,130.12,130.12,0,0,0,19.46,23.5c1.53,1.44,3.08,2.89,4.72,4.2,1.44,1.16,4.05,1.36,5.35-.07A97.39,97.39,0,0,0,296.34,430a122.31,122.31,0,0,0,15.4-34.47,95.78,95.78,0,0,0,3.18-25.78c0-1.65-2.43-2.59-3.77-2.68S308,367.57,308,369.26Z"/><path class="cls-12" d="M221,303.13c-72.33,15.24-122.76,52.28-122.76,52.28s36.5-88.08,112.23-137.27a2.49,2.49,0,0,1,3.82,1.93Z"/><path class="cls-12" d="M452.64,326s-55.7-28.23-129.51-31.33l-6.7-83a2.5,2.5,0,0,1,3.54-2.49C337.44,217.34,409.77,254.34,452.64,326Z"/><path class="cls-11" d="M362.25,371.53a302.18,302.18,0,0,0-66.35-5.71,305.39,305.39,0,0,0-65.17,8.7,298.64,298.64,0,0,0-34.38,10.7c-3.11,1.18-.53,5.34,2.11,4.34A298.24,298.24,0,0,1,325.57,371a292.5,292.5,0,0,1,36.21,4.91,2.21,2.21,0,0,0,2.79-1.65,2.77,2.77,0,0,0-2.32-2.73Z"/><circle class="cls-13" cx="283.46" cy="354.33" r="262.69"/><path class="cls-14" d="M222.05,185.62a90.76,90.76,0,0,0,9.23-4.09l.84-.62q.91-1,1.89-1.86-2.52-3.7-5.54-8.28c-2.11-5.25-21.53-34.69-22.79-37.17-.23-.32-.38-.53-.77-.58-4.22-.5-10.67,2.73-15.64,7.21-.4.42-.54,1-.2,1.23,3.58,2.67,11.38,13.84,25.86,34.11Z"/><path class="cls-14" d="M261,158.19s.28,9.46.53,18.07a44.78,44.78,0,0,0,10.5,1.3c1-.13,2-.25,3-.34-.08-4.25-.13-9.42-.11-15.53,1.16-5.53,1.3-40.8,1.63-43.57,0-.39,0-.65-.32-.9-3.24-2.76-10.4-3.64-17-2.67-.57.12-1,.51-.85.91C259.87,119.66,260.17,133.29,261,158.19Z"/><path class="cls-14" d="M344.71,129.19c-5.43-3.9-12.19-6.42-16.34-5.46-.37.09-.5.32-.7.66-1,2.6-17.09,34-18.61,39.43-3.24,6.3-6,11.44-8.18,15.46,2,1.58,3.88,3.3,5.92,4.66a25.83,25.83,0,0,1,4,1.59l1.95.09c4.49-8.09,10.29-18.5,10.29-18.5,12.19-21.73,18.73-33.68,22-36.73C345.35,130.11,345.15,129.57,344.71,129.19Z"/></g><circle class="cls-15" cx="283.46" cy="354.33" r="262.69"/></svg>